<svg viewBox="0 0 360.33 360.87" xmlns="http://www.w3.org/2000/svg" xmlns:xlink="http://www.w3.org/1999/xlink" id="Capa_2" overflow="hidden"><defs></defs><g id="Capa_1-2"><g><rect x="0" y="0" width="360.33" height="360.87" fill="#FFFFFF"/><g><path d="M99.74 242.24 142.63 242.24 142.63 251.25 110.17 251.25 110.17 266.85 140.21 266.85 140.21 275.36 110.17 275.36 110.17 292.8 143.21 292.8 143.21 301.81 99.74 301.81 99.74 242.23Z" fill="#1F140F"/><path d="M152.06 242.24 162.49 242.24 162.49 265.94 189.61 265.94 189.61 242.24 200.04 242.24 200.04 301.82 189.61 301.82 189.61 274.95 162.49 274.95 162.49 301.82 152.06 301.82 152.06 242.24Z" fill="#1F140F"/><path d="M211.89 242.24 222.32 242.24 222.32 276.95C222.32 278.95 222.42 280.98 222.61 283.04 222.8 285.1 223.36 286.95 224.28 288.59 225.2 290.23 226.59 291.58 228.45 292.64 230.31 293.7 232.94 294.22 236.34 294.22 239.74 294.22 242.36 293.69 244.23 292.64 246.09 291.58 247.48 290.23 248.4 288.59 249.32 286.95 249.87 285.1 250.07 283.04 250.26 280.98 250.36 278.95 250.36 276.95L250.36 242.24 260.79 242.24 260.79 280.37C260.79 284.21 260.21 287.55 259.04 290.38 257.87 293.22 256.22 295.59 254.07 297.51 251.93 299.43 249.36 300.86 246.35 301.81 243.34 302.76 240.01 303.23 236.34 303.23 232.67 303.23 229.33 302.76 226.33 301.81 223.33 300.86 220.75 299.43 218.61 297.51 216.47 295.59 214.81 293.21 213.65 290.38 212.48 287.54 211.9 284.21 211.9 280.37L211.9 242.24Z" fill="#1F140F"/><path d="M140.21 183.91 140.34 211.27C140.35 214.33 140.97 214.66 144.08 214.69 162.37 214.81 180.67 214.37 198.96 213.16 201.3 213 201.98 212.14 202.12 209.59L204.18 171.79C204.28 170.05 204.9 169.07 205.63 168.88 209.39 166.41 234.17 161.03 246.68 158.8 251.98 157.77 253.58 154.98 256.05 146.21L257.72 140.29C258.26 138.66 260.07 137.88 261.92 137.46L285.65 135.85C287.38 135.8 288.07 134.49 288.02 132.27L287.49 71.97C287.49 70.82 286.71 70.37 285.16 70.33 273.82 70.01 263.31 67.2 256.23 61.83 254.29 60.36 250.3 59.49 246.21 59.04 244.05 58.79 241.16 59.43 240.35 59.55 232.44 59.24 226.03 58.94 218.11 58.62 216.46 58.82 215.93 59.77 215.82 61.3L215.79 77.14C215.83 78.48 217.27 78.77 221.16 79.31 229.08 79.07 233.9 80.53 239.48 82.03 240.61 82.33 241.41 83.09 241.62 84.39 242.12 87.51 242.76 90 242.86 93.03 242.96 96.02 242.49 99.05 242.59 102.04 242.62 102.85 241.99 103.25 241.14 103.29 237.19 103.48 233.41 103.19 229.79 102.46 228.29 102.16 228.16 101.32 227.84 99.56 227.4 97.1 226.74 95.51 226.07 93.15 225.95 92.73 225.73 92.55 225.38 92.54L213.69 92.44C212.03 92.43 211.18 96.07 211.14 98.12 210.48 103.03 210.81 114.1 211.06 123.35 211.04 124.81 210.9 125.04 212.59 125.17L222.74 125.97C224.75 126.14 225.36 127.39 225.42 128.51L225.76 135.57C225.89 137.09 225.18 137.88 223.76 138.07 215.96 138.77 208.32 139.21 200.15 138.93 199.16 138.95 198.6 138.13 198.55 136.94L198.4 127.32C198.32 125.7 198.33 124.96 196.88 124.65 190.3 123.25 183.79 121.51 177.12 120.87 175.76 120.74 174.12 120.38 172.74 120.32 169.85 120.18 167.24 120.93 164.22 121.13 162.86 121.3 162.39 121.64 162.23 122.54 161.67 128.99 162.05 137.48 162.72 139.72 163.09 141.09 163.31 141.24 164.64 141.35 167.7 141.57 171.16 142.36 174.23 142.49 175.4 142.54 175.66 143.49 175.63 144.84L175.07 168.25C175.04 169.67 173.74 170.33 172.4 170.36 170 170.41 167.7 171 165.3 171.07 163.77 171.12 162.98 170.03 162.59 168.67 161.73 165.68 160.82 163.16 160.23 160.1 159.87 158.22 158.17 157.54 155.04 157.18L136.34 155.02C134.94 154.6 134.21 154.13 134.02 153L133.52 146.52C133.36 145.57 133.22 144.35 133.72 143.64 134.78 142.59 140.13 140.77 143.34 139.52 144.69 139 144.49 138.15 144.41 137.02 144.35 131.88 142.74 125.75 141.34 120.26 140.64 117.49 140.86 117.44 138.08 117.35 136.89 117.25 135.42 117.22 134.23 117.12 130.32 116.81 127.61 116.99 123.85 116.12 122.95 116.02 121.36 114.29 121.67 113.27L127.68 95.3C128.14 93.94 128.48 93.67 130.01 93.88L136.03 94.73C136.95 94.86 137.66 95.81 137.83 96.92L138.75 102.78C138.93 103.91 138.53 104.36 140.34 104.42L155.25 104.91C156.36 104.95 156.73 104.05 156.88 103.3 157.45 100.49 158.06 97.67 158.63 94.86 159.08 92.63 159.13 91.47 159.16 89.19 159.2 86.04 159.24 82.93 159.28 79.78 159.3 78.11 158.19 77.95 156.77 77.26 151.39 74.65 138.28 72.3 128.9 70.69 127.79 70.5 125.91 70.65 124.79 70.46 123.5 70.24 123.05 68.37 122.79 67.77L120.01 61.39C119.52 60.27 118.95 59.16 116.23 59.02 102.29 58.31 88.45 57.79 75.05 58.15 72.72 58.21 72.5 59.1 72.5 62L72.53 143.16C72.53 145 73.14 147.56 75.37 147.59L103.04 148.03C104.07 148.05 104.42 148.81 104.47 149.66 104.82 156.43 106.43 162.38 107.4 169.1 107.92 172.7 109.1 177.96 112.41 178.32L137.18 181.05C139.4 181.3 140.21 181.8 140.22 183.96" fill="#1F140F"/></g></g></g></svg>